# xmcd CD database file
#
# Track frame offsets:
#	150
#	21050
#	34827
#	57767
#	75922
#	85992
#	93095
#	103717
#	124145
#	152567
#	167382
#	179492
#
# Disc length: 2614 seconds
#
# Revision: 0
# Processed by: cddbd v1.5.1PL0 Copyright (c) Steve Scherf et al.
# Submitted via: CDex 1.51
#
DISCID=810a340c
DTITLE=銀河管弦楽団 - マーヴェランド　母なる文明を求めて
DYEAR=1900
DGENRE=Instrumental
TTITLE0=幻の大陸
TTITLE1=永遠の風
TTITLE2=航海
TTITLE3=ジョイストリーム
TTITLE4=フレンドシップII
TTITLE5=アミューズメント
TTITLE6=家族のポートレイト
TTITLE7=一千億の綺羅星
TTITLE8=レジェンドII
TTITLE9=レインボウ・ステイション
TTITLE10=ジョイストリーム（ヴォーカルヴァージョン）
TTITLE11=ノスタルジア
EXTD=
EXTT0=
EXTT1=
EXTT2=
EXTT3=
EXTT4=
EXTT5=
EXTT6=
EXTT7=
EXTT8=
EXTT9=
EXTT10=
EXTT11=
PLAYORDER=
